<?xml version="1.0" encoding="UTF-8" standalone="no"?>
<!-- Created with Inkscape (http://www.inkscape.org/) -->

<svg
   version="1.1"
   id="svg1"
   width="100"
   height="97.595627"
   viewBox="0 0 100 97.595627"
   sodipodi:docname="chicken.svg"
   inkscape:version="1.3.2 (091e20ef0f, 2023-11-25, custom)"
   xmlns:inkscape="http://www.inkscape.org/namespaces/inkscape"
   xmlns:sodipodi="http://sodipodi.sourceforge.net/DTD/sodipodi-0.dtd"
   xmlns="http://www.w3.org/2000/svg"
   xmlns:svg="http://www.w3.org/2000/svg">
  <defs
     id="defs1" />
  <sodipodi:namedview
     id="namedview1"
     pagecolor="#ffffff"
     bordercolor="#000000"
     borderopacity="0.25"
     inkscape:showpageshadow="2"
     inkscape:pageopacity="0.0"
     inkscape:pagecheckerboard="0"
     inkscape:deskcolor="#d1d1d1"
     inkscape:zoom="2.8284271"
     inkscape:cx="94.752309"
     inkscape:cy="127.63277"
     inkscape:window-width="1920"
     inkscape:window-height="1056"
     inkscape:window-x="1920"
     inkscape:window-y="0"
     inkscape:window-maximized="1"
     inkscape:current-layer="g32">
    <inkscape:page
       x="0"
       y="0"
       inkscape:label="1"
       id="page1"
       width="100"
       height="97.595627"
       margin="0"
       bleed="0" />
  </sodipodi:namedview>
  <g
     id="g1"
     inkscape:groupmode="layer"
     inkscape:label="1"
     transform="translate(-1188.9006,-451.39912)">
    <g
       id="g32"
       transform="matrix(0.91191399,0,0,0.90147054,123.32006,128.62373)">
      <g
         id="g2"
         transform="matrix(0.1,0,0,0.09765377,1083.34,338.80086)">
        <ellipse
           style="fill:#ffffff;fill-opacity:1;stroke:#793449;stroke-width:24.6913;stroke-dasharray:none;stroke-opacity:1"
           id="path31"
           cx="1395.9669"
           cy="789.22662"
           rx="494.41937"
           ry="504.22592" />
        <path
           id="path3"
           d="m 1400,197.16007 c 302.8133,0 548.2933,245.47999 548.2933,548.29331 0,199.57333 -106.6267,374.21332 -266.0133,470.12002 -4.5467,-9.6934 -8.9467,-19.32 -13.2,-28.8934 -106.0134,-239.05329 -43.6534,-417.53328 -125.5467,-597.49328 -90.7067,-199.29333 -239.6387,-131.18666 -320.3533,22.8 -3.2494,6.18667 -6.4547,12.56 -9.616,19.10667 10.2,3.2 20.048,7.89333 29.32,13.89333 21.4226,13.85333 40.9333,35.70667 50.0586,59.73333 7.9467,20.93334 7.2574,46.42667 -14.4026,58.73333 -5.7067,3.25334 -11.9627,5.09334 -18.5334,5.32 -10.02,0.34667 -18.8933,-3 -27.324,-7.94666 -1.9973,18.58666 -3.064,38.57333 3.5014,56.28 3.1773,8.57333 7.8013,16.92 12.1933,24.92 7.096,12.94666 14.0693,25.74666 20.4733,39.05333 11.332,23.57333 14.0334,50.12 -0.6213,72.96 -23.956,37.36 -78.5467,42.37333 -117.384,29.89333 -11.5413,-3.70667 -21.9227,-8.77333 -31.0413,-14.98667 -9.9867,73.21329 -15.7294,152.86669 -16.0934,237.93329 C 952.11198,1109.3334 851.69865,939.12005 851.69865,745.45338 851.69865,442.64006 1097.1826,197.16007 1400,197.16007"
           style="fill:#793449;fill-opacity:1;fill-rule:evenodd;stroke:none;stroke-width:0.133333" />
        <path
           id="path4"
           d="m 1289.8586,456.68006 c 3.736,10.38666 5.7667,17.01333 8.1214,27.88 77.5133,-60.24 168.5933,-57.72 236.3266,43.6 10.12,15.14666 19.72,32.49333 28.68,52.17333 8.0667,15.02667 17.2534,22.21333 27.56,21.56 13.6,-0.86667 30.96,-16.96 38.9334,-34.36 8.2533,-18.04 5.4666,-31.74667 -11.7467,-41.50667 -18.8933,-10.72 -46.9733,-14.77333 -39.44,-37.96 6.4667,-19.90666 48.36,-11.84 65.7067,-43.17333 7.64,-13.78666 5.1733,-29.97333 -4.1734,-43.8 -34.7733,-51.4 -90.84,-29 -134.4533,-7.42666 -39.8133,19.68 -73.7333,35.84 -48.3867,-24.62667 51.7867,-123.52 -250.22,-143.57333 -167.128,87.64"
           style="fill:#ef364e;fill-opacity:1;fill-rule:evenodd;stroke:none;stroke-width:0.133333" />
        <path
           id="path5"
           d="m 1178.9986,738.16005 c 16.6507,8.30667 26.2787,13.82667 28.8827,16.53333 -8.0747,71.30667 8.9747,76.70667 38.1453,137.37333 46.832,97.37334 -158.8346,104.09334 -145.792,-23.16 3.9507,-38.53333 39.392,-116.13333 78.764,-130.74666"
           style="fill:#ef364e;fill-opacity:1;fill-rule:evenodd;stroke:none;stroke-width:0.133333" />
        <path
           id="path6"
           d="m 1105.344,712.01339 c -6.4774,-1 -8.828,-4.2 -7.0534,-9.61334 6.5494,-19.98666 42.464,-45.52 62.4827,-51.16 51.4,-14.50666 98.4387,26.76 111.556,61.30667 6.344,16.70667 2.996,27.37333 -4.688,31.74666 -25.4573,14.46667 -49.8427,-39.59999 -100.0867,-40.82666 -20.4133,-0.49333 -43.1133,11.46667 -62.2106,8.54667"
           style="fill:#f4c42a;fill-opacity:1;fill-rule:evenodd;stroke:none;stroke-width:0.133333" />
        <path
           id="path7"
           d="m 1364.4266,664.85339 c 30.4,0 55.0534,24.64 55.0534,55.05333 0,30.4 -24.6534,55.05333 -55.0534,55.05333 -30.4133,0 -55.0586,-24.65333 -55.0586,-55.05333 0,-30.41333 24.6453,-55.05333 55.0586,-55.05333"
           style="fill:#793449;fill-opacity:1;fill-rule:evenodd;stroke:none;stroke-width:0.133333" />
        <path
           id="path8"
           d="m 1350.9333,683.84005 c 13.2533,0 24,10.74667 24,24 0,13.25334 -10.7467,24 -24,24 -13.24,0 -23.9893,-10.74666 -23.9893,-24 0,-13.25333 10.7493,-24 23.9893,-24"
           style="fill:#ffffff;fill-opacity:1;fill-rule:evenodd;stroke:none;stroke-width:0.133333" />
        <path
           id="path9"
           d="m 1364.12,800.20005 c 37.5866,0 68.0533,14.41333 68.0533,32.18667 0,17.78666 -30.4667,32.2 -68.0533,32.2 -37.5787,0 -68.044,-14.41334 -68.044,-32.2 0,-17.77334 30.4653,-32.18667 68.044,-32.18667"
           style="fill:#fcb5b9;fill-opacity:1;fill-rule:evenodd;stroke:none;stroke-width:0.133333" />
      </g>
    </g>
  </g>
</svg>
